<?xml version="1.0" encoding="UTF-8"?>
<svg width="1200pt" height="1200pt" version="1.1" viewBox="0 0 1200 1200" xmlns="http://www.w3.org/2000/svg">
 <path d="m437.07 1095.7c-146.77 21.406-266.05-3.5508-297.64-35.137-31.664-31.68-56.66-151.54-34.93-298.86 94.02 132.83 205.4 244.57 332.57 334z" fill="#953c12"/>
 <path d="m761.7 104.51c147.32-21.73 267.18 3.2656 298.86 34.934 31.586 31.586 56.543 150.86 35.137 297.64-89.422-127.17-201.18-238.55-334-332.57z" fill="#953c12"/>
 <path d="m663.29 125.24c-113.14 31.789-233.93 92.723-339.62 198.43-105.7 105.71-166.63 226.48-198.42 339.61 110.03 171.83 248.03 310.04 410.95 411.64 113.28-31.738 234.28-92.734 340.14-198.59 105.86-105.85 166.85-226.86 198.59-340.14-101.59-162.92-239.81-300.93-411.64-410.95zm27.574 226.59c-13.188 7.8125-26.125 16.332-39.035 24.91l26.484 26.484c10.547 10.547 10.547 27.637 0 38.184s-27.637 10.547-38.184 0l-32.977-32.977c-19.055 14.328-37.812 29.293-56.062 45.254l38.375 38.375c10.547 10.547 10.547 27.637 0 38.184-10.547 10.547-27.637 10.547-38.184 0l-39.828-39.828c-7.5703 7.3555-11.652 9.457-49.547 51.77l38.723 38.723c10.547 10.547 10.547 27.637 0 38.184s-27.637 10.547-38.184 0l-35.438-35.438c-15.254 19.02-29.629 38.41-43.141 58.176l27.91 27.91c10.547 10.547 10.547 27.637 0 38.184s-27.637 10.547-38.184 0l-19.586-19.586c-8.0273 13.441-16.234 26.809-23.473 40.535-6.9492 13.188-23.293 18.238-36.48 11.305-13.188-6.9492-18.254-23.27-11.305-36.48 9.793-18.574 20.594-36.793 31.754-54.863l-29.762-29.762c-10.547-10.547-10.547-27.637 0-38.184 10.547-10.547 27.637-10.547 38.184 0l22.117 22.117c13.715-19.621 28.234-38.867 43.559-57.758l-15.012-15.012c-10.547-10.547-10.547-27.637 0-38.184s27.637-10.547 38.184 0l11.941 11.941c40.297-44.723 40.906-43.355 49.559-51.77l-10.836-10.836c-10.547-10.547-10.547-27.637 0-38.184s27.637-10.547 38.184 0l12.133 12.133c18.18-15.996 36.828-31.066 55.777-45.539l-17.258-17.258c-10.547-10.547-10.547-27.637 0-38.184 10.547-10.547 27.637-10.547 38.184 0l23.27 23.27c16.645-11.328 33.492-22.141 50.594-32.27 12.852-7.5977 29.426-3.3945 36.984 9.457 7.625 12.871 3.3867 29.43-9.4414 37.016z" fill="#953c12"/>
</svg>
